<?xml version="1.0" encoding="UTF-8" standalone="no"?>
<!-- Created with Inkscape (http://www.inkscape.org/) -->

<svg
   width="19.8634mm"
   height="19.863388mm"
   viewBox="0 0 19.8634 19.863388"
   version="1.1"
   id="svg5"
   inkscape:version="1.2.2 (b0a84865, 2022-12-01)"
   sodipodi:docname="logo.svg"
   xmlns:inkscape="http://www.inkscape.org/namespaces/inkscape"
   xmlns:sodipodi="http://sodipodi.sourceforge.net/DTD/sodipodi-0.dtd"
   xmlns="http://www.w3.org/2000/svg"
   xmlns:svg="http://www.w3.org/2000/svg">
  <sodipodi:namedview
     id="namedview7"
     pagecolor="#505050"
     bordercolor="#eeeeee"
     borderopacity="1"
     inkscape:showpageshadow="0"
     inkscape:pageopacity="0"
     inkscape:pagecheckerboard="0"
     inkscape:deskcolor="#505050"
     inkscape:document-units="mm"
     showgrid="false"
     inkscape:zoom="2.5599422"
     inkscape:cx="245.51335"
     inkscape:cy="552.1609"
     inkscape:window-width="1728"
     inkscape:window-height="1051"
     inkscape:window-x="0"
     inkscape:window-y="38"
     inkscape:window-maximized="1"
     inkscape:current-layer="layer1" />
  <defs
     id="defs2" />
  <g
     inkscape:label="Ebene 1"
     inkscape:groupmode="layer"
     id="layer1"
     transform="translate(-57.314184,-136.9747)">
    <path
       id="path390"
       style="fill:#e95420;stroke-width:0.264583"
       inkscape:label="circle"
       d="m 77.177588,146.90639 a 9.9317007,9.9317007 0 0 1 -9.9317,9.9317 9.9317007,9.9317007 0 0 1 -9.931701,-9.9317 9.9317007,9.9317007 0 0 1 9.931701,-9.9317 9.9317007,9.9317007 0 0 1 9.9317,9.9317 z" />
    <g
       aria-label="me"
       id="text335"
       style="font-size:9.87778px;stroke-width:0.264583"
       inkscape:label="me">
      <path
         d="m 61.092598,143.15866 q 0.316089,-0.079 0.829734,-0.16792 0.523522,-0.0889 1.205089,-0.0889 0.493889,0 0.829733,0.13829 0.335845,0.12841 0.563034,0.38523 0.06914,-0.0494 0.217311,-0.13829 0.148167,-0.0889 0.365478,-0.16792 0.217311,-0.0889 0.484011,-0.14816 0.2667,-0.0692 0.572911,-0.0692 0.592667,0 0.968023,0.1778 0.375355,0.16792 0.582789,0.48401 0.217311,0.31609 0.286455,0.75071 0.07902,0.43463 0.07902,0.94827 v 2.88431 h -0.918634 v -2.68675 q 0,-0.45438 -0.04939,-0.78035 -0.03951,-0.32597 -0.167922,-0.54328 -0.118533,-0.21731 -0.335845,-0.31609 -0.207433,-0.10865 -0.543277,-0.10865 -0.464256,0 -0.770467,0.12841 -0.296334,0.11853 -0.404989,0.21731 0.07902,0.25682 0.118533,0.56303 0.03951,0.30622 0.03951,0.64206 v 2.88431 h -0.918633 v -2.68675 q 0,-0.45438 -0.04939,-0.78035 -0.04939,-0.32597 -0.1778,-0.54328 -0.118534,-0.21731 -0.335845,-0.31609 -0.207433,-0.10865 -0.5334,-0.10865 -0.138289,0 -0.296333,0.01 -0.158045,0.01 -0.306212,0.0296 -0.138288,0.01 -0.256822,0.0296 -0.118533,0.0198 -0.158044,0.0296 v 4.33634 h -0.918634 z"
         style="font-family:Ubuntu;-inkscape-font-specification:Ubuntu;fill:#ffffff"
         id="path6881" />
      <path
         d="m 69.310893,145.5886 q 0,-0.68157 0.197555,-1.18534 0.197556,-0.51364 0.523523,-0.84949 0.325966,-0.33584 0.750711,-0.50376 0.424745,-0.16792 0.869245,-0.16792 1.037167,0 1.590322,0.65193 0.553156,0.64205 0.553156,1.96568 0,0.0593 0,0.15804 0,0.0889 -0.0099,0.16792 h -3.51649 q 0.05927,0.8001 0.464256,1.21497 0.404989,0.41487 1.264356,0.41487 0.484011,0 0.809978,-0.079 0.335844,-0.0889 0.503767,-0.16793 l 0.128411,0.77047 q -0.167922,0.0889 -0.592667,0.18768 -0.414867,0.0988 -0.948267,0.0988 -0.671689,0 -1.165578,-0.19756 -0.484011,-0.20743 -0.8001,-0.56303 -0.316089,-0.3556 -0.474133,-0.83961 -0.148167,-0.49389 -0.148167,-1.07668 z m 3.526367,-0.50377 q 0.0099,-0.6223 -0.316089,-1.01741 -0.316089,-0.40499 -0.879122,-0.40499 -0.316089,0 -0.563034,0.12841 -0.237066,0.11853 -0.404989,0.31609 -0.167922,0.19756 -0.2667,0.45438 -0.0889,0.25682 -0.118533,0.52352 z"
         style="font-family:Ubuntu;-inkscape-font-specification:Ubuntu;fill:#ffffff"
         id="path6883" />
    </g>
    <g
       aria-label="consulting"
       id="text637"
       style="font-size:2.82222px;stroke-width:0.264583"
       inkscape:label="consulting">
      <path
         d="m 61.654665,150.8363 q -0.1778,0 -0.313267,-0.0564 -0.132644,-0.0564 -0.225777,-0.15804 -0.09031,-0.1016 -0.135467,-0.23989 -0.04516,-0.14111 -0.04516,-0.31045 0,-0.16933 0.04798,-0.31044 0.0508,-0.14111 0.141111,-0.24271 0.09031,-0.10442 0.220133,-0.16087 0.132645,-0.0593 0.293511,-0.0593 0.09878,0 0.197556,0.0169 0.09878,0.0169 0.189088,0.0536 l -0.05927,0.22296 q -0.05927,-0.0282 -0.138289,-0.0452 -0.0762,-0.0169 -0.163689,-0.0169 -0.220133,0 -0.338666,0.13829 -0.115711,0.13829 -0.115711,0.40357 0,0.11854 0.0254,0.21732 0.02822,0.0988 0.08467,0.16933 0.05927,0.0705 0.149578,0.11006 0.09031,0.0367 0.220133,0.0367 0.104422,0 0.189089,-0.0198 0.08467,-0.0198 0.132644,-0.0423 l 0.03669,0.22014 q -0.02258,0.0141 -0.06491,0.0282 -0.04233,0.0113 -0.09595,0.0198 -0.05362,0.0113 -0.115711,0.0169 -0.05927,0.008 -0.115711,0.008 z"
         style="font-family:Ubuntu;-inkscape-font-specification:Ubuntu;fill:#ffffff"
         id="path6860" />
      <path
         d="m 63.587879,150.06865 q 0,0.17498 -0.0508,0.31609 -0.0508,0.14111 -0.143933,0.24271 -0.09031,0.1016 -0.217311,0.15805 -0.127,0.0536 -0.276578,0.0536 -0.149577,0 -0.276577,-0.0536 -0.127,-0.0565 -0.220133,-0.15805 -0.09031,-0.1016 -0.141111,-0.24271 -0.0508,-0.14111 -0.0508,-0.31609 0,-0.17215 0.0508,-0.31326 0.0508,-0.14394 0.141111,-0.24554 0.09313,-0.1016 0.220133,-0.15522 0.127,-0.0564 0.276577,-0.0564 0.149578,0 0.276578,0.0564 0.127,0.0536 0.217311,0.15522 0.09313,0.1016 0.143933,0.24554 0.0508,0.14111 0.0508,0.31326 z m -0.273755,0 q 0,-0.24835 -0.112889,-0.39229 -0.110067,-0.14675 -0.301978,-0.14675 -0.191911,0 -0.304799,0.14675 -0.110067,0.14394 -0.110067,0.39229 0,0.24836 0.110067,0.39511 0.112888,0.14394 0.304799,0.14394 0.191911,0 0.301978,-0.14394 0.112889,-0.14675 0.112889,-0.39511 z"
         style="font-family:Ubuntu;-inkscape-font-specification:Ubuntu;fill:#ffffff"
         id="path6862" />
      <path
         d="m 63.957585,149.37721 q 0.09031,-0.0226 0.239889,-0.048 0.149577,-0.0254 0.34431,-0.0254 0.174978,0 0.290689,0.0508 0.115711,0.048 0.183444,0.13829 0.07056,0.0875 0.09878,0.21167 0.02822,0.12417 0.02822,0.27375 v 0.82409 h -0.262466 v -0.76764 q 0,-0.13547 -0.01976,-0.23143 -0.01693,-0.0959 -0.05927,-0.15522 -0.04233,-0.0593 -0.112889,-0.0847 -0.07056,-0.0282 -0.174978,-0.0282 -0.04233,0 -0.08749,0.003 -0.04516,0.003 -0.08749,0.008 -0.03951,0.003 -0.07338,0.008 -0.03105,0.006 -0.04516,0.008 v 1.23896 h -0.262466 z"
         style="font-family:Ubuntu;-inkscape-font-specification:Ubuntu;fill:#ffffff"
         id="path6864" />
      <path
         d="m 65.919026,150.61334 q 0.160867,0 0.237067,-0.0423 0.07902,-0.0423 0.07902,-0.13547 0,-0.096 -0.0762,-0.1524 -0.0762,-0.0564 -0.251178,-0.127 -0.08467,-0.0339 -0.163688,-0.0677 -0.0762,-0.0367 -0.132645,-0.0847 -0.05644,-0.048 -0.09031,-0.11571 -0.03387,-0.0677 -0.03387,-0.16651 0,-0.19473 0.143934,-0.30762 0.143933,-0.11571 0.392288,-0.11571 0.06209,0 0.124178,0.008 0.06209,0.006 0.115711,0.0169 0.05362,0.008 0.09313,0.0198 0.04233,0.0113 0.06491,0.0198 l -0.04798,0.22577 q -0.04233,-0.0226 -0.132645,-0.0451 -0.09031,-0.0254 -0.217311,-0.0254 -0.110066,0 -0.191911,0.0452 -0.08184,0.0423 -0.08184,0.13547 0,0.048 0.01693,0.0847 0.01976,0.0367 0.05644,0.0677 0.03951,0.0282 0.09596,0.0536 0.05644,0.0254 0.135467,0.0536 0.104422,0.0395 0.186266,0.079 0.08185,0.0367 0.138289,0.0875 0.05927,0.0508 0.09031,0.12417 0.03104,0.0706 0.03104,0.17498 0,0.2032 -0.152399,0.30762 -0.149578,0.10443 -0.428978,0.10443 -0.194733,0 -0.3048,-0.0339 -0.110066,-0.031 -0.149577,-0.048 l 0.04798,-0.22578 q 0.04516,0.0169 0.143934,0.0508 0.09878,0.0339 0.262466,0.0339 z"
         style="font-family:Ubuntu;-inkscape-font-specification:Ubuntu;fill:#ffffff"
         id="path6866" />
      <path
         d="m 68.004645,150.7601 q -0.09031,0.0226 -0.239889,0.048 -0.146756,0.0254 -0.341489,0.0254 -0.169333,0 -0.285044,-0.048 -0.115711,-0.0508 -0.186266,-0.14112 -0.07056,-0.0903 -0.1016,-0.21166 -0.03105,-0.12418 -0.03105,-0.27376 v -0.82409 h 0.262467 v 0.76765 q 0,0.26811 0.08467,0.38382 0.08467,0.11571 0.285044,0.11571 0.04233,0 0.08749,-0.003 0.04516,-0.003 0.08467,-0.006 0.03951,-0.006 0.07055,-0.008 0.03387,-0.006 0.04798,-0.0113 v -1.23896 h 0.262467 z"
         style="font-family:Ubuntu;-inkscape-font-specification:Ubuntu;fill:#ffffff"
         id="path6868" />
      <path
         d="m 68.896464,150.83065 q -0.242711,-0.006 -0.344311,-0.10442 -0.1016,-0.0988 -0.1016,-0.30762 v -1.76107 l 0.262467,-0.0452 v 1.76388 q 0,0.0649 0.01129,0.10725 0.01129,0.0423 0.03669,0.0677 0.0254,0.0254 0.06773,0.0395 0.04233,0.0113 0.104422,0.0198 z"
         style="font-family:Ubuntu;-inkscape-font-specification:Ubuntu;fill:#ffffff"
         id="path6870" />
      <path
         d="m 69.472194,149.33487 h 0.555977 v 0.22014 h -0.555977 v 0.67733 q 0,0.11007 0.01693,0.18345 0.01693,0.0706 0.0508,0.11288 0.03387,0.0395 0.08467,0.0564 0.0508,0.0169 0.118533,0.0169 0.118533,0 0.189089,-0.0254 0.07338,-0.0282 0.1016,-0.0395 l 0.0508,0.21731 q -0.03951,0.0198 -0.138289,0.048 -0.09878,0.031 -0.225778,0.031 -0.149577,0 -0.248355,-0.0367 -0.09596,-0.0395 -0.155222,-0.11571 -0.05927,-0.0762 -0.08467,-0.18626 -0.02258,-0.11289 -0.02258,-0.25965 v -1.30951 l 0.262467,-0.0451 z"
         style="font-family:Ubuntu;-inkscape-font-specification:Ubuntu;fill:#ffffff"
         id="path6872" />
      <path
         d="m 70.623655,150.80243 h -0.262466 v -1.46756 h 0.262466 z m -0.132644,-1.73284 q -0.07056,0 -0.121355,-0.0452 -0.04798,-0.048 -0.04798,-0.127 0,-0.079 0.04798,-0.12418 0.0508,-0.048 0.121355,-0.048 0.07055,0 0.118533,0.048 0.0508,0.0452 0.0508,0.12418 0,0.079 -0.0508,0.127 -0.04798,0.0452 -0.118533,0.0452 z"
         style="font-family:Ubuntu;-inkscape-font-specification:Ubuntu;fill:#ffffff"
         id="path6874" />
      <path
         d="m 71.075206,149.37721 q 0.09031,-0.0226 0.239888,-0.048 0.149578,-0.0254 0.344311,-0.0254 0.174978,0 0.290689,0.0508 0.115711,0.048 0.183444,0.13829 0.07056,0.0875 0.09878,0.21167 0.02822,0.12417 0.02822,0.27375 v 0.82409 h -0.262466 v -0.76764 q 0,-0.13547 -0.01976,-0.23143 -0.01693,-0.0959 -0.05927,-0.15522 -0.04233,-0.0593 -0.112889,-0.0847 -0.07056,-0.0282 -0.174978,-0.0282 -0.04233,0 -0.08749,0.003 -0.04516,0.003 -0.08749,0.008 -0.03951,0.003 -0.07338,0.008 -0.03105,0.006 -0.04516,0.008 v 1.23896 h -0.262466 z"
         style="font-family:Ubuntu;-inkscape-font-specification:Ubuntu;fill:#ffffff"
         id="path6876" />
      <path
         d="m 73.615203,150.65567 q -0.03387,0.0226 -0.132645,0.0593 -0.09596,0.0339 -0.225777,0.0339 -0.132645,0 -0.251178,-0.0423 -0.115711,-0.0423 -0.2032,-0.12982 -0.08749,-0.0903 -0.138288,-0.22295 -0.0508,-0.13265 -0.0508,-0.31609 0,-0.16087 0.04798,-0.29351 0.04798,-0.13547 0.138289,-0.23143 0.09313,-0.0988 0.225778,-0.1524 0.132644,-0.0564 0.299155,-0.0564 0.183444,0 0.318911,0.0282 0.138289,0.0254 0.231422,0.048 v 1.30951 q 0,0.33867 -0.174978,0.49107 -0.174977,0.1524 -0.530577,0.1524 -0.138289,0 -0.262467,-0.0226 -0.121355,-0.0226 -0.211666,-0.0536 l 0.04798,-0.2286 q 0.07902,0.031 0.191911,0.0536 0.115711,0.0254 0.239888,0.0254 0.234245,0 0.335845,-0.0931 0.104422,-0.0931 0.104422,-0.29634 z m -0.0028,-1.08937 q -0.03951,-0.0113 -0.107244,-0.0198 -0.06491,-0.0113 -0.1778,-0.0113 -0.211666,0 -0.327377,0.13829 -0.112889,0.13829 -0.112889,0.36689 0,0.127 0.03104,0.21731 0.03387,0.0903 0.08749,0.14958 0.05645,0.0593 0.127,0.0875 0.07338,0.0282 0.149578,0.0282 0.104422,0 0.191911,-0.0282 0.08749,-0.031 0.138288,-0.0706 z"
         style="font-family:Ubuntu;-inkscape-font-specification:Ubuntu;fill:#ffffff"
         id="path6878" />
    </g>
  </g>
</svg>
