<svg xmlns="http://www.w3.org/2000/svg" id="canvas" viewBox="260.329 399.869 1008.657 191.920"><path d="M 264.74,484.86 C 265.76 484.36, 266.85 483.57, 268.43 481.39 C 270.02 479.21, 270.73 477.48, 272.66 473.97 C 274.58 470.45, 275.77 468.14, 278.06 463.82 C 280.35 459.50, 281.68 457.08, 284.11 452.36 C 286.55 447.65, 287.77 444.96, 290.24 440.26 C 292.72 435.56, 294.08 432.99, 296.48 428.87 C 298.88 424.74, 300.11 422.76, 302.24 419.64 C 304.37 416.51, 305.52 415.05, 307.12 413.24 C 308.72 411.42, 309.26 410.70, 310.25 410.56 C 311.23 410.42, 311.37 410.78, 312.03 412.53 C 312.68 414.27, 312.94 415.63, 313.53 419.29 C 314.11 422.95, 314.54 425.56, 314.96 430.83 C 315.38 436.09, 315.58 439.28, 315.62 445.63 C 315.65 451.98, 315.47 455.58, 315.12 462.59 C 314.78 469.59, 314.53 473.30, 313.91 480.66 C 313.28 488.03, 312.89 492.06, 312.00 499.42 C 311.10 506.78, 310.55 510.54, 309.43 517.47 C 308.32 524.40, 307.82 527.93, 306.42 534.04 C 305.03 540.16, 304.14 543.16, 302.45 548.03 C 300.76 552.91, 299.90 555.03, 297.98 558.43 C 296.06 561.84, 294.83 563.12, 292.85 565.07 C 290.88 567.01, 289.95 567.45, 288.10 568.17 C 286.24 568.89, 285.39 568.84, 283.58 568.65 C 281.76 568.45, 280.94 568.04, 279.03 567.20 C 277.11 566.36, 275.97 565.72, 274.02 564.43 C 272.07 563.13, 271.10 562.02, 269.29 560.73 C 267.48 559.44, 266.11 558.28, 264.98 557.98 C 263.86 557.68, 263.38 558.08, 263.66 559.25 C 263.95 560.42, 264.87 562.01, 266.43 563.83 C 267.98 565.64, 269.21 566.90, 271.45 568.34 C 273.68 569.79, 275.21 570.31, 277.60 571.06 C 279.99 571.81, 281.06 572.07, 283.40 572.09 C 285.74 572.11, 286.94 572.12, 289.29 571.16 C 291.63 570.20, 292.94 569.60, 295.13 567.30 C 297.32 564.99, 298.37 563.35, 300.23 559.63 C 302.10 555.91, 302.86 553.74, 304.46 548.70 C 306.06 543.66, 306.90 540.64, 308.23 534.44 C 309.56 528.25, 310.04 524.70, 311.12 517.74 C 312.20 510.77, 312.75 507.00, 313.65 499.62 C 314.54 492.23, 314.94 488.20, 315.60 480.81 C 316.26 473.43, 316.53 469.72, 316.96 462.69 C 317.39 455.66, 317.62 452.05, 317.76 445.65 C 317.89 439.25, 317.81 436.05, 317.65 430.68 C 317.48 425.30, 317.50 422.70, 316.93 418.77 C 316.36 414.85, 316.15 413.16, 314.80 411.07 C 313.45 408.99, 312.19 408.38, 310.17 408.34 C 308.15 408.31, 306.79 408.95, 304.71 410.89 C 302.64 412.83, 301.89 414.70, 299.80 418.05 C 297.72 421.40, 296.63 423.40, 294.29 427.62 C 291.96 431.84, 290.60 434.43, 288.12 439.14 C 285.65 443.86, 284.43 446.54, 281.91 451.20 C 279.39 455.85, 277.99 458.21, 275.53 462.42 C 273.08 466.62, 271.71 468.84, 269.65 472.23 C 267.58 475.61, 266.48 477.03, 265.21 479.36 C 263.95 481.69, 263.44 482.79, 263.34 483.89 C 263.25 484.99, 263.72 485.36, 264.74 484.86" style="stroke: black; fill: black;"/><path d="M 433.50,476.55 C 433.51 475.80, 433.29 474.99, 432.31 474.07 C 431.34 473.15, 430.50 472.43, 428.64 471.95 C 426.79 471.47, 425.53 471.11, 423.04 471.66 C 420.55 472.21, 418.97 472.86, 416.19 474.71 C 413.41 476.57, 412.14 477.94, 409.14 480.92 C 406.14 483.90, 404.35 485.75, 401.21 489.62 C 398.08 493.49, 396.35 495.87, 393.47 500.27 C 390.59 504.68, 389.18 507.04, 386.81 511.64 C 384.45 516.24, 383.21 518.78, 381.65 523.27 C 380.09 527.76, 379.59 530.16, 379.02 534.09 C 378.45 538.03, 378.32 539.76, 378.80 542.95 C 379.27 546.13, 379.68 547.75, 381.38 550.01 C 383.07 552.27, 384.54 553.31, 387.29 554.25 C 390.03 555.18, 391.77 555.28, 395.10 554.68 C 398.42 554.08, 400.12 553.25, 403.92 551.23 C 407.72 549.20, 409.87 547.71, 414.10 544.54 C 418.33 541.38, 420.61 539.36, 425.07 535.40 C 429.53 531.44, 431.95 529.02, 436.40 524.73 C 440.85 520.44, 443.21 518.08, 447.34 513.95 C 451.47 509.81, 453.45 507.61, 457.06 504.05 C 460.67 500.49, 462.31 498.76, 465.39 496.13 C 468.46 493.49, 469.87 492.57, 472.42 490.88 C 474.97 489.18, 476.16 488.60, 478.13 487.65 C 480.10 486.70, 480.88 486.42, 482.25 486.13 C 483.63 485.84, 484.18 486.05, 485.01 486.19 C 485.84 486.34, 486.07 486.53, 486.39 486.85 C 486.71 487.16, 486.62 487.30, 486.60 487.76 C 486.58 488.21, 486.66 488.52, 486.30 489.12 C 485.94 489.73, 485.81 489.83, 484.81 490.79 C 483.82 491.74, 482.94 492.24, 481.31 493.88 C 479.68 495.53, 478.70 496.54, 476.65 499.03 C 474.59 501.52, 473.40 503.11, 471.03 506.34 C 468.67 509.58, 467.26 511.52, 464.83 515.21 C 462.40 518.91, 461.02 521.11, 458.87 524.83 C 456.72 528.55, 455.64 530.47, 454.08 533.80 C 452.52 537.14, 451.71 538.74, 451.08 541.49 C 450.45 544.24, 450.46 545.72, 450.94 547.57 C 451.41 549.42, 452.09 550.05, 453.45 550.73 C 454.81 551.42, 455.84 551.58, 457.73 550.98 C 459.63 550.38, 460.89 549.77, 462.93 547.74 C 464.97 545.71, 465.84 543.94, 467.94 540.83 C 470.03 537.71, 471.25 535.89, 473.41 532.17 C 475.57 528.44, 476.66 526.21, 478.74 522.22 C 480.81 518.22, 481.93 516.03, 483.78 512.20 C 485.62 508.36, 486.55 506.42, 487.95 503.03 C 489.35 499.64, 490.18 497.95, 490.77 495.25 C 491.37 492.54, 491.33 490.99, 490.95 489.49 C 490.57 487.99, 489.97 487.61, 488.89 487.75 C 487.80 487.88, 486.80 488.35, 485.53 490.17 C 484.26 491.99, 483.60 493.57, 482.53 496.87 C 481.46 500.16, 481.05 502.58, 480.18 506.64 C 479.31 510.69, 478.81 513.10, 478.19 517.12 C 477.57 521.15, 477.14 523.27, 477.09 526.75 C 477.04 530.24, 477.11 532.00, 477.95 534.55 C 478.78 537.11, 479.53 538.20, 481.28 539.54 C 483.03 540.89, 484.25 541.36, 486.69 541.30 C 489.13 541.23, 490.75 540.80, 493.49 539.23 C 496.23 537.67, 497.53 536.29, 500.41 533.48 C 503.28 530.66, 504.81 528.80, 507.85 525.17 C 510.88 521.54, 512.56 519.27, 515.57 515.33 C 518.58 511.40, 520.10 509.18, 522.88 505.49 C 525.66 501.79, 526.98 499.86, 529.47 496.86 C 531.96 493.86, 533.37 492.59, 535.34 490.49 C 537.32 488.39, 538.23 487.47, 539.36 486.34 C 540.50 485.22, 540.70 484.85, 541.01 484.86 C 541.31 484.87, 541.11 485.06, 540.89 486.41 C 540.66 487.76, 540.30 488.80, 539.88 491.60 C 539.46 494.41, 539.40 496.54, 538.78 500.43 C 538.17 504.32, 537.68 506.79, 536.80 511.04 C 535.91 515.29, 535.31 517.82, 534.36 521.68 C 533.41 525.53, 532.52 527.41, 532.05 530.32 C 531.58 533.23, 531.58 534.50, 532.01 536.23 C 532.44 537.95, 532.96 538.65, 534.21 538.95 C 535.46 539.26, 536.52 539.07, 538.26 537.74 C 540.00 536.41, 540.91 535.20, 542.91 532.31 C 544.91 529.42, 545.88 527.18, 548.27 523.28 C 550.66 519.38, 552.15 516.91, 554.86 512.82 C 557.56 508.74, 559.12 506.49, 561.80 502.86 C 564.47 499.23, 566.04 497.27, 568.23 494.67 C 570.43 492.07, 571.54 491.12, 572.77 489.85 C 573.99 488.58, 574.16 488.06, 574.34 488.31 C 574.53 488.56, 574.03 489.11, 573.69 491.10 C 573.36 493.10, 573.16 494.92, 572.67 498.27 C 572.17 501.63, 571.83 503.89, 571.21 507.89 C 570.59 511.89, 570.15 514.30, 569.56 518.28 C 568.96 522.26, 568.31 524.41, 568.23 527.79 C 568.14 531.16, 568.14 532.88, 569.14 535.17 C 570.13 537.46, 571.23 538.42, 573.21 539.23 C 575.19 540.03, 576.58 540.10, 579.05 539.21 C 581.51 538.32, 582.77 537.22, 585.52 534.77 C 588.27 532.32, 590.09 530.13, 592.79 526.98 C 595.48 523.83, 597.03 521.85, 599.00 519.00 C 600.97 516.15, 602.17 514.18, 602.63 512.73 C 603.09 511.28, 602.57 510.90, 601.31 511.74 C 600.05 512.57, 598.59 514.35, 596.32 516.90 C 594.05 519.46, 592.67 521.52, 589.97 524.50 C 587.27 527.48, 585.30 529.50, 582.82 531.79 C 580.34 534.07, 579.30 534.92, 577.57 535.91 C 575.84 536.90, 575.25 537.10, 574.16 536.74 C 573.07 536.37, 572.59 535.86, 572.13 534.09 C 571.67 532.33, 571.69 530.98, 571.84 527.92 C 572.00 524.86, 572.30 522.66, 572.89 518.78 C 573.48 514.90, 573.99 512.50, 574.80 508.53 C 575.61 504.56, 576.41 502.40, 576.94 498.91 C 577.47 495.42, 577.80 493.45, 577.44 491.08 C 577.08 488.72, 576.42 487.78, 575.14 487.08 C 573.86 486.37, 572.92 486.48, 571.03 487.58 C 569.15 488.67, 568.03 489.82, 565.72 492.55 C 563.41 495.27, 562.15 497.47, 559.50 501.21 C 556.86 504.94, 555.31 507.18, 552.51 511.23 C 549.71 515.29, 548.12 517.75, 545.51 521.47 C 542.90 525.20, 541.45 527.13, 539.46 529.87 C 537.48 532.60, 536.62 533.62, 535.59 535.15 C 534.56 536.68, 534.51 537.33, 534.32 537.52 C 534.12 537.71, 534.30 537.42, 534.61 536.12 C 534.91 534.82, 535.25 533.77, 535.84 531.03 C 536.43 528.29, 536.72 526.27, 537.55 522.41 C 538.38 518.56, 539.00 515.99, 539.99 511.74 C 540.98 507.50, 541.59 505.08, 542.52 501.17 C 543.44 497.26, 544.31 495.23, 544.62 492.19 C 544.93 489.16, 544.69 487.79, 544.05 486.00 C 543.42 484.21, 542.74 483.66, 541.45 483.24 C 540.16 482.82, 539.35 482.94, 537.60 483.90 C 535.85 484.85, 534.79 485.78, 532.71 488.01 C 530.62 490.24, 529.56 491.86, 527.17 495.04 C 524.77 498.21, 523.47 500.16, 520.73 503.89 C 517.98 507.62, 516.46 509.81, 513.44 513.69 C 510.42 517.56, 508.70 519.81, 505.62 523.25 C 502.55 526.70, 500.90 528.46, 498.05 530.93 C 495.20 533.40, 493.72 534.22, 491.38 535.61 C 489.05 537.00, 488.02 537.53, 486.36 537.87 C 484.69 538.21, 484.08 538.16, 483.07 537.30 C 482.06 536.45, 481.79 535.70, 481.29 533.60 C 480.80 531.50, 480.56 529.99, 480.60 526.80 C 480.64 523.61, 480.87 521.51, 481.50 517.65 C 482.13 513.79, 482.67 511.38, 483.75 507.52 C 484.84 503.65, 485.82 501.46, 486.91 498.34 C 488.00 495.23, 488.67 493.86, 489.21 491.94 C 489.74 490.02, 489.72 489.25, 489.57 488.74 C 489.43 488.22, 489.02 488.24, 488.49 489.35 C 487.96 490.45, 487.64 491.77, 486.92 494.28 C 486.21 496.78, 486.09 498.54, 484.92 501.88 C 483.76 505.21, 482.87 507.15, 481.12 510.94 C 479.36 514.74, 478.23 516.94, 476.14 520.85 C 474.05 524.76, 472.93 526.96, 470.66 530.49 C 468.40 534.02, 467.04 535.74, 464.80 538.51 C 462.55 541.29, 461.16 542.50, 459.44 544.37 C 457.71 546.25, 457.19 547.01, 456.17 547.89 C 455.14 548.77, 454.81 548.90, 454.33 548.76 C 453.84 548.63, 453.67 548.48, 453.76 547.21 C 453.84 545.94, 454.07 544.82, 454.73 542.40 C 455.39 539.99, 455.71 538.35, 457.07 535.13 C 458.42 531.92, 459.43 529.97, 461.50 526.33 C 463.57 522.70, 464.94 520.51, 467.40 516.94 C 469.86 513.37, 471.29 511.49, 473.78 508.48 C 476.27 505.47, 477.69 504.16, 479.87 501.91 C 482.05 499.66, 483.04 498.88, 484.68 497.22 C 486.32 495.57, 487.04 495.00, 488.07 493.65 C 489.09 492.30, 489.46 491.76, 489.83 490.47 C 490.20 489.18, 490.19 488.34, 489.90 487.20 C 489.61 486.06, 489.21 485.57, 488.38 484.77 C 487.54 483.98, 487.05 483.59, 485.71 483.22 C 484.38 482.85, 483.52 482.66, 481.70 482.92 C 479.88 483.18, 478.86 483.46, 476.63 484.53 C 474.40 485.59, 473.17 486.31, 470.57 488.24 C 467.97 490.17, 466.66 491.34, 463.63 494.18 C 460.61 497.02, 459.00 498.79, 455.45 502.45 C 451.89 506.11, 449.94 508.31, 445.84 512.47 C 441.74 516.62, 439.40 518.97, 434.95 523.21 C 430.50 527.46, 428.06 529.86, 423.59 533.71 C 419.12 537.56, 416.80 539.50, 412.59 542.46 C 408.37 545.41, 406.15 546.76, 402.53 548.49 C 398.91 550.21, 397.30 550.64, 394.47 551.10 C 391.65 551.57, 390.48 551.43, 388.39 550.81 C 386.30 550.19, 385.30 549.68, 384.03 548.01 C 382.77 546.33, 382.50 545.15, 382.07 542.44 C 381.64 539.73, 381.47 538.13, 381.87 534.46 C 382.27 530.79, 382.66 528.43, 384.08 524.09 C 385.50 519.75, 386.68 517.23, 388.97 512.75 C 391.27 508.26, 392.68 505.93, 395.56 501.66 C 398.43 497.39, 400.18 495.06, 403.34 491.40 C 406.51 487.73, 408.38 485.96, 411.39 483.33 C 414.40 480.70, 415.88 479.72, 418.40 478.26 C 420.93 476.81, 422.17 476.47, 424.02 476.06 C 425.87 475.64, 426.42 475.94, 427.66 476.18 C 428.90 476.42, 429.28 476.92, 430.21 477.25 C 431.13 477.59, 431.61 477.99, 432.27 477.85 C 432.93 477.71, 433.49 477.31, 433.50 476.55" style="stroke: black; fill: black;"/><path d="M 718.68,502.24 C 719.38 501.66, 719.80 500.68, 720.40 499.00 C 721.00 497.32, 721.26 496.07, 721.67 493.83 C 722.08 491.59, 722.19 490.21, 722.46 487.82 C 722.72 485.42, 722.80 484.22, 723.00 481.86 C 723.20 479.50, 723.44 478.20, 723.45 476.03 C 723.45 473.87, 723.40 472.84, 723.03 471.03 C 722.66 469.23, 722.48 468.28, 721.59 467.02 C 720.70 465.76, 720.08 465.05, 718.57 464.73 C 717.05 464.41, 715.94 464.39, 714.00 465.40 C 712.05 466.40, 710.96 467.32, 708.85 469.74 C 706.73 472.16, 705.69 473.83, 703.41 477.49 C 701.14 481.16, 699.79 483.47, 697.45 488.08 C 695.11 492.70, 693.78 495.47, 691.71 500.58 C 689.65 505.69, 688.63 508.62, 687.13 513.63 C 685.64 518.64, 685.01 521.38, 684.22 525.64 C 683.44 529.89, 682.90 531.90, 683.22 534.90 C 683.54 537.90, 684.31 539.23, 685.83 540.63 C 687.35 542.03, 688.63 542.43, 690.82 541.90 C 693.01 541.38, 694.31 540.49, 696.77 538.03 C 699.23 535.57, 700.41 533.64, 703.11 529.60 C 705.81 525.56, 707.30 523.11, 710.27 517.83 C 713.24 512.54, 714.75 509.35, 717.95 503.17 C 721.14 496.99, 723.01 493.51, 726.23 486.92 C 729.45 480.34, 731.04 476.73, 734.05 470.23 C 737.07 463.73, 738.65 460.42, 741.32 454.43 C 743.99 448.45, 745.30 445.28, 747.40 440.30 C 749.51 435.32, 750.57 433.00, 751.85 429.52 C 753.13 426.05, 753.72 424.55, 753.80 422.93 C 753.87 421.31, 753.13 420.70, 752.22 421.41 C 751.31 422.12, 750.53 423.17, 749.25 426.48 C 747.98 429.78, 747.48 432.50, 745.86 437.94 C 744.24 443.39, 743.03 446.90, 741.15 453.71 C 739.28 460.53, 738.18 464.69, 736.48 472.01 C 734.78 479.34, 733.88 483.37, 732.65 490.33 C 731.42 497.28, 730.73 500.77, 730.34 506.80 C 729.95 512.84, 730.06 515.90, 730.71 520.52 C 731.36 525.13, 731.77 527.09, 733.58 529.86 C 735.39 532.62, 736.88 533.57, 739.75 534.35 C 742.63 535.13, 744.51 534.96, 747.95 533.76 C 751.39 532.55, 753.30 531.14, 756.96 528.33 C 760.61 525.52, 762.52 523.51, 766.23 519.70 C 769.93 515.89, 771.86 513.50, 775.48 509.27 C 779.09 505.04, 781.13 502.52, 784.31 498.55 C 787.49 494.59, 789.00 492.56, 791.38 489.45 C 793.75 486.34, 794.98 485.12, 796.18 483.01 C 797.37 480.90, 797.59 479.80, 797.35 478.90 C 797.12 478.00, 796.25 477.75, 794.99 478.52 C 793.74 479.29, 792.45 480.30, 791.08 482.76 C 789.71 485.23, 789.35 487.16, 788.16 490.84 C 786.96 494.52, 786.20 497.01, 785.11 501.17 C 784.03 505.34, 783.31 507.74, 782.72 511.68 C 782.12 515.62, 781.87 517.47, 782.12 520.88 C 782.37 524.29, 782.78 526.18, 783.97 528.72 C 785.17 531.27, 786.09 532.34, 788.09 533.61 C 790.10 534.88, 791.49 535.18, 793.99 535.06 C 796.49 534.95, 798.05 534.50, 800.59 533.03 C 803.12 531.57, 804.44 530.25, 806.67 527.74 C 808.89 525.22, 810.02 523.70, 811.72 520.45 C 813.42 517.19, 814.15 515.18, 815.17 511.46 C 816.19 507.74, 816.58 505.66, 816.82 501.85 C 817.06 498.03, 817.05 495.88, 816.37 492.39 C 815.69 488.90, 814.85 487.16, 813.42 484.41 C 811.99 481.65, 810.82 480.48, 809.20 478.61 C 807.57 476.73, 806.79 476.04, 805.29 475.02 C 803.78 473.99, 802.81 473.57, 801.68 473.49 C 800.55 473.40, 799.77 473.95, 799.64 474.60 C 799.52 475.24, 799.69 476.08, 801.05 476.71 C 802.40 477.33, 803.59 477.90, 806.40 477.74 C 809.21 477.57, 811.12 476.73, 815.09 475.87 C 819.05 475.01, 821.55 474.54, 826.23 473.45 C 830.90 472.36, 833.62 471.71, 838.47 470.44 C 843.32 469.17, 845.94 468.23, 850.50 467.10 C 855.05 465.98, 857.43 465.55, 861.25 464.81 C 865.06 464.07, 866.72 463.89, 869.56 463.38 C 872.40 462.87, 874.28 462.78, 875.43 462.26 C 876.59 461.74, 876.61 461.16, 875.35 460.77 C 874.10 460.37, 872.10 460.06, 869.16 460.30 C 866.22 460.53, 864.51 461.10, 860.65 461.95 C 856.79 462.79, 854.41 463.35, 849.85 464.53 C 845.28 465.72, 842.66 466.67, 837.82 467.87 C 832.97 469.08, 830.29 469.70, 825.63 470.55 C 820.96 471.40, 818.41 471.72, 814.48 472.12 C 810.56 472.53, 808.65 472.36, 806.02 472.60 C 803.39 472.83, 802.60 472.89, 801.35 473.29 C 800.11 473.68, 799.92 473.99, 799.77 474.56 C 799.62 475.12, 799.93 475.45, 800.60 476.11 C 801.26 476.77, 801.98 476.86, 803.12 477.86 C 804.25 478.85, 804.89 479.40, 806.27 481.08 C 807.64 482.76, 808.65 483.84, 809.99 486.25 C 811.32 488.65, 812.25 490.03, 812.94 493.11 C 813.64 496.18, 813.67 498.15, 813.46 501.64 C 813.25 505.13, 812.88 507.12, 811.89 510.54 C 810.90 513.95, 810.16 515.81, 808.51 518.69 C 806.86 521.58, 805.68 522.83, 803.64 524.96 C 801.60 527.08, 800.31 528.00, 798.31 529.31 C 796.30 530.62, 795.32 531.19, 793.62 531.52 C 791.92 531.85, 791.08 531.81, 789.81 530.96 C 788.54 530.11, 788.10 529.34, 787.25 527.27 C 786.41 525.20, 785.83 523.62, 785.57 520.60 C 785.30 517.58, 785.35 515.86, 785.91 512.16 C 786.47 508.46, 787.15 506.08, 788.38 502.10 C 789.60 498.12, 790.60 495.71, 792.03 492.27 C 793.47 488.83, 794.54 487.37, 795.54 484.90 C 796.54 482.43, 796.88 481.21, 797.04 479.92 C 797.20 478.63, 797.05 478.22, 796.33 478.47 C 795.61 478.72, 794.89 479.31, 793.43 481.17 C 791.97 483.02, 791.25 484.57, 789.04 487.74 C 786.82 490.91, 785.43 493.02, 782.35 497.02 C 779.27 501.01, 777.24 503.53, 773.65 507.70 C 770.06 511.88, 768.09 514.23, 764.39 517.88 C 760.70 521.54, 758.70 523.41, 755.19 525.97 C 751.68 528.53, 749.79 529.60, 746.85 530.70 C 743.91 531.80, 742.65 531.95, 740.47 531.48 C 738.28 531.00, 737.41 530.59, 735.91 528.33 C 734.42 526.06, 733.71 524.45, 732.98 520.16 C 732.25 515.88, 731.99 512.82, 732.27 506.91 C 732.55 501.01, 733.20 497.53, 734.39 490.63 C 735.59 483.73, 736.48 479.70, 738.23 472.43 C 739.98 465.16, 741.09 461.02, 743.14 454.29 C 745.19 447.57, 746.59 444.13, 748.48 438.80 C 750.38 433.46, 751.61 430.99, 752.61 427.62 C 753.61 424.25, 753.63 423.02, 753.49 421.96 C 753.34 420.90, 752.74 421.00, 751.87 422.31 C 751.01 423.63, 750.47 425.09, 749.18 428.53 C 747.89 431.97, 747.33 434.47, 745.43 439.51 C 743.52 444.54, 742.23 447.70, 739.64 453.70 C 737.05 459.70, 735.48 463.01, 732.49 469.50 C 729.49 475.99, 727.90 479.59, 724.65 486.15 C 721.40 492.70, 719.51 496.17, 716.24 502.27 C 712.97 508.38, 711.40 511.55, 708.30 516.68 C 705.20 521.80, 703.57 524.15, 700.72 527.90 C 697.88 531.64, 696.26 533.13, 694.08 535.40 C 691.91 537.66, 691.18 538.50, 689.86 539.23 C 688.55 539.97, 688.16 539.98, 687.51 539.06 C 686.85 538.14, 686.70 537.23, 686.58 534.64 C 686.47 532.04, 686.36 530.14, 686.94 526.08 C 687.52 522.02, 688.08 519.23, 689.49 514.32 C 690.90 509.41, 691.90 506.50, 693.97 501.51 C 696.05 496.51, 697.41 493.78, 699.85 489.35 C 702.29 484.92, 703.72 482.69, 706.18 479.37 C 708.63 476.04, 710.14 474.85, 712.15 472.73 C 714.15 470.60, 714.98 469.82, 716.19 468.74 C 717.41 467.67, 717.70 467.43, 718.22 467.37 C 718.74 467.31, 718.62 467.60, 718.80 468.44 C 718.98 469.29, 719.05 470.08, 719.14 471.58 C 719.23 473.07, 719.36 473.95, 719.25 475.91 C 719.13 477.87, 718.88 479.11, 718.57 481.37 C 718.26 483.63, 718.05 484.85, 717.70 487.19 C 717.34 489.54, 717.04 490.87, 716.78 493.09 C 716.52 495.32, 716.37 496.56, 716.39 498.33 C 716.41 500.10, 716.44 501.15, 716.90 501.93 C 717.36 502.71, 717.98 502.83, 718.68 502.24" style="stroke: black; fill: black;"/><path d="M 947.12,419.36 C 946.63 419.79, 946.53 420.15, 946.20 421.51 C 945.86 422.88, 945.58 423.59, 945.44 426.19 C 945.30 428.78, 945.60 430.38, 945.48 434.48 C 945.36 438.58, 945.37 441.25, 944.85 446.67 C 944.33 452.10, 943.76 455.26, 942.89 461.61 C 942.02 467.95, 941.51 471.61, 940.48 478.39 C 939.44 485.17, 938.78 488.94, 937.73 495.51 C 936.68 502.09, 936.16 505.38, 935.24 511.26 C 934.32 517.14, 933.79 520.16, 933.11 524.91 C 932.44 529.65, 932.13 531.84, 931.87 534.99 C 931.62 538.14, 931.70 539.06, 931.84 540.67 C 931.98 542.28, 932.35 542.56, 932.57 543.05 C 932.80 543.54, 932.88 543.08, 932.97 543.12 C 933.06 543.15, 932.89 543.23, 933.04 543.23 C 933.19 543.23, 933.43 543.61, 933.71 543.12 C 934.00 542.62, 934.22 542.34, 934.47 540.76 C 934.73 539.18, 934.77 538.33, 934.97 535.21 C 935.16 532.10, 935.01 529.92, 935.46 525.19 C 935.91 520.45, 936.39 517.43, 937.22 511.55 C 938.04 505.68, 938.55 502.38, 939.58 495.81 C 940.61 489.23, 941.28 485.47, 942.36 478.69 C 943.45 471.91, 943.98 468.26, 944.99 461.92 C 946.00 455.58, 946.62 452.42, 947.41 446.98 C 948.20 441.55, 948.41 438.87, 948.95 434.76 C 949.48 430.64, 949.98 429.06, 950.10 426.42 C 950.23 423.79, 949.86 422.98, 949.57 421.57 C 949.27 420.16, 949.13 419.80, 948.64 419.36 C 948.15 418.92, 947.61 418.93, 947.12 419.36" style="stroke: black; fill: black;"/><path d="M 929.07,490.44 C 929.72 490.28, 929.90 489.87, 930.77 489.03 C 931.64 488.18, 932.21 487.58, 933.42 486.22 C 934.63 484.85, 935.23 483.92, 936.82 482.21 C 938.41 480.49, 939.25 479.68, 941.38 477.65 C 943.51 475.62, 944.79 474.64, 947.47 472.05 C 950.16 469.46, 951.67 467.97, 954.81 464.68 C 957.94 461.39, 959.67 459.52, 963.15 455.60 C 966.63 451.68, 968.64 449.46, 972.20 445.10 C 975.76 440.74, 977.54 438.25, 980.96 433.81 C 984.37 429.38, 986.24 426.90, 989.28 422.92 C 992.32 418.94, 993.80 416.96, 996.16 413.90 C 998.52 410.84, 999.71 409.55, 1001.08 407.60 C 1002.45 405.65, 1002.80 404.80, 1003.01 404.14 C 1003.22 403.47, 1002.79 403.28, 1002.15 404.28 C 1001.50 405.28, 1000.84 406.11, 999.80 409.14 C 998.75 412.17, 998.39 414.48, 996.91 419.41 C 995.44 424.34, 994.45 427.45, 992.42 433.78 C 990.39 440.11, 989.08 443.87, 986.77 451.06 C 984.46 458.26, 983.20 462.40, 980.88 469.78 C 978.56 477.16, 977.29 481.12, 975.16 487.96 C 973.03 494.80, 971.87 498.25, 970.23 503.97 C 968.58 509.69, 967.81 512.42, 966.93 516.56 C 966.05 520.70, 965.60 522.25, 965.83 524.67 C 966.05 527.09, 966.71 527.97, 968.07 528.65 C 969.43 529.34, 970.63 529.17, 972.62 528.09 C 974.62 527.00, 975.77 525.80, 978.03 523.23 C 980.29 520.67, 981.33 518.74, 983.93 515.28 C 986.54 511.82, 988.14 509.48, 991.06 505.94 C 993.98 502.41, 995.94 500.40, 998.53 497.61 C 1001.12 494.82, 1002.56 493.50, 1004.03 491.99 C 1005.49 490.49, 1005.59 489.90, 1005.84 490.08 C 1006.08 490.27, 1005.64 491.02, 1005.25 492.93 C 1004.86 494.83, 1004.42 496.55, 1003.89 499.62 C 1003.36 502.69, 1003.07 504.80, 1002.61 508.26 C 1002.15 511.72, 1001.69 513.79, 1001.60 516.93 C 1001.51 520.07, 1001.45 521.72, 1002.18 523.95 C 1002.90 526.19, 1003.49 527.17, 1005.22 528.11 C 1006.94 529.06, 1008.34 529.32, 1010.82 528.67 C 1013.30 528.01, 1014.74 527.08, 1017.62 524.82 C 1020.51 522.57, 1022.06 520.80, 1025.24 517.41 C 1028.42 514.02, 1030.32 511.78, 1033.53 507.87 C 1036.73 503.96, 1038.33 501.67, 1041.27 497.84 C 1044.22 494.01, 1045.86 491.87, 1048.27 488.72 C 1050.68 485.57, 1052.12 483.95, 1053.32 482.09 C 1054.52 480.23, 1054.42 479.34, 1054.28 479.41 C 1054.14 479.48, 1053.31 480.26, 1052.61 482.44 C 1051.90 484.62, 1051.67 486.73, 1050.78 490.32 C 1049.88 493.90, 1049.18 496.38, 1048.13 500.38 C 1047.08 504.37, 1046.41 506.79, 1045.53 510.29 C 1044.65 513.79, 1043.97 515.35, 1043.73 517.90 C 1043.50 520.45, 1043.61 521.66, 1044.35 523.04 C 1045.10 524.42, 1045.89 524.76, 1047.46 524.79 C 1049.02 524.81, 1050.24 524.63, 1052.18 523.15 C 1054.11 521.67, 1055.05 520.11, 1057.13 517.37 C 1059.22 514.63, 1060.22 512.81, 1062.59 509.47 C 1064.96 506.13, 1066.35 504.14, 1069.00 500.67 C 1071.65 497.19, 1073.16 495.20, 1075.83 492.10 C 1078.49 489.01, 1079.90 487.50, 1082.34 485.18 C 1084.77 482.86, 1086.06 481.92, 1087.99 480.51 C 1089.93 479.10, 1090.81 478.57, 1092.02 478.14 C 1093.24 477.72, 1093.58 477.77, 1094.05 478.39 C 1094.53 479.00, 1094.47 479.46, 1094.41 481.23 C 1094.36 482.99, 1094.13 484.36, 1093.77 487.22 C 1093.42 490.08, 1093.28 492.10, 1092.64 495.52 C 1092.01 498.94, 1091.47 500.98, 1090.58 504.33 C 1089.69 507.67, 1088.78 509.51, 1088.19 512.26 C 1087.60 515.01, 1087.47 516.37, 1087.62 518.07 C 1087.77 519.77, 1088.03 520.39, 1088.93 520.78 C 1089.83 521.16, 1090.63 521.02, 1092.12 519.99 C 1093.61 518.95, 1094.58 517.96, 1096.37 515.60 C 1098.15 513.24, 1098.93 511.32, 1101.07 508.20 C 1103.21 505.09, 1104.61 503.13, 1107.06 500.04 C 1109.51 496.94, 1111.00 495.21, 1113.31 492.73 C 1115.63 490.25, 1116.90 489.20, 1118.65 487.65 C 1120.40 486.10, 1121.17 485.57, 1122.04 484.96 C 1122.92 484.35, 1122.97 484.12, 1123.04 484.62 C 1123.11 485.11, 1122.72 485.79, 1122.42 487.44 C 1122.11 489.10, 1121.91 490.34, 1121.50 492.87 C 1121.10 495.40, 1120.83 497.14, 1120.40 500.08 C 1119.97 503.03, 1119.52 504.74, 1119.35 507.59 C 1119.19 510.44, 1119.05 512.02, 1119.57 514.34 C 1120.09 516.66, 1120.54 517.75, 1121.94 519.18 C 1123.34 520.62, 1124.31 521.16, 1126.59 521.52 C 1128.87 521.89, 1130.46 521.95, 1133.34 521.03 C 1136.21 520.11, 1137.70 518.94, 1140.97 516.93 C 1144.24 514.91, 1146.11 513.60, 1149.71 510.96 C 1153.30 508.32, 1155.27 506.60, 1158.95 503.72 C 1162.62 500.83, 1164.56 499.27, 1168.08 496.53 C 1171.61 493.80, 1173.45 492.39, 1176.57 490.06 C 1179.70 487.72, 1181.27 486.66, 1183.72 484.85 C 1186.17 483.04, 1187.30 482.45, 1188.82 481.02 C 1190.35 479.58, 1191.00 478.88, 1191.33 477.67 C 1191.67 476.46, 1191.52 475.68, 1190.48 474.97 C 1189.45 474.26, 1188.33 473.79, 1186.17 474.13 C 1184.01 474.46, 1182.48 474.92, 1179.69 476.66 C 1176.90 478.40, 1175.32 480.05, 1172.22 482.82 C 1169.13 485.58, 1167.37 487.21, 1164.22 490.51 C 1161.07 493.80, 1159.34 495.71, 1156.46 499.28 C 1153.59 502.85, 1152.09 504.99, 1149.85 508.34 C 1147.61 511.69, 1146.51 513.24, 1145.25 516.02 C 1143.99 518.81, 1143.53 520.16, 1143.56 522.27 C 1143.59 524.38, 1144.16 525.56, 1145.42 526.57 C 1146.67 527.58, 1147.78 527.70, 1149.82 527.34 C 1151.87 526.97, 1153.27 526.46, 1155.64 524.73 C 1158.01 523.00, 1159.20 521.47, 1161.66 518.67 C 1164.13 515.87, 1165.43 514.07, 1167.98 510.72 C 1170.53 507.37, 1171.93 505.36, 1174.41 501.92 C 1176.90 498.48, 1178.22 496.61, 1180.40 493.52 C 1182.59 490.43, 1183.86 488.95, 1185.34 486.47 C 1186.82 483.98, 1187.39 482.56, 1187.80 481.08 C 1188.20 479.60, 1187.92 478.95, 1187.34 479.06 C 1186.77 479.18, 1185.92 479.71, 1184.93 481.65 C 1183.95 483.58, 1183.53 485.23, 1182.40 488.75 C 1181.27 492.28, 1180.68 494.72, 1179.30 499.26 C 1177.91 503.80, 1177.11 506.42, 1175.48 511.46 C 1173.85 516.51, 1172.83 519.22, 1171.13 524.49 C 1169.43 529.75, 1168.57 532.67, 1166.99 537.81 C 1165.41 542.95, 1164.74 545.49, 1163.23 550.18 C 1161.72 554.87, 1160.92 557.15, 1159.46 561.27 C 1158.01 565.39, 1157.42 567.42, 1155.95 570.77 C 1154.49 574.12, 1153.57 575.54, 1152.14 578.02 C 1150.71 580.51, 1149.90 581.59, 1148.80 583.19 C 1147.70 584.80, 1147.24 585.35, 1146.62 586.06 C 1146.01 586.77, 1145.82 586.95, 1145.71 586.74 C 1145.61 586.53, 1145.81 586.21, 1146.09 585.00 C 1146.38 583.79, 1146.57 582.99, 1147.14 580.69 C 1147.70 578.39, 1147.73 576.76, 1148.92 573.49 C 1150.10 570.22, 1150.98 568.18, 1153.08 564.35 C 1155.19 560.52, 1156.53 558.50, 1159.44 554.34 C 1162.35 550.18, 1164.07 547.96, 1167.63 543.55 C 1171.19 539.13, 1173.26 536.82, 1177.24 532.27 C 1181.23 527.73, 1183.48 525.27, 1187.56 520.82 C 1191.63 516.38, 1193.77 514.12, 1197.62 510.04 C 1201.47 505.96, 1203.28 503.99, 1206.82 500.43 C 1210.36 496.87, 1212.13 495.20, 1215.34 492.25 C 1218.55 489.30, 1220.11 488.06, 1222.86 485.68 C 1225.61 483.31, 1226.77 482.26, 1229.08 480.38 C 1231.39 478.50, 1232.41 477.61, 1234.41 476.29 C 1236.41 474.97, 1237.31 474.45, 1239.10 473.78 C 1240.88 473.12, 1241.66 472.99, 1243.31 472.97 C 1244.97 472.95, 1245.75 473.04, 1247.36 473.68 C 1248.97 474.31, 1249.77 474.76, 1251.35 476.14 C 1252.93 477.53, 1253.73 478.56, 1255.25 480.59 C 1256.78 482.62, 1257.72 483.83, 1258.98 486.28 C 1260.23 488.73, 1260.97 490.15, 1261.54 492.83 C 1262.11 495.50, 1262.12 496.92, 1261.83 499.65 C 1261.54 502.39, 1261.18 503.78, 1260.10 506.51 C 1259.02 509.24, 1258.35 510.87, 1256.44 513.31 C 1254.53 515.74, 1253.35 516.73, 1250.54 518.69 C 1247.74 520.64, 1245.66 521.60, 1242.41 523.10 C 1239.16 524.60, 1237.06 525.07, 1234.29 526.19 C 1231.51 527.31, 1229.59 527.90, 1228.52 528.72 C 1227.45 529.54, 1227.56 530.12, 1228.93 530.29 C 1230.31 530.46, 1232.41 530.36, 1235.41 529.57 C 1238.40 528.78, 1240.49 527.95, 1243.92 526.34 C 1247.34 524.73, 1249.47 523.68, 1252.53 521.52 C 1255.60 519.37, 1257.03 518.27, 1259.24 515.55 C 1261.45 512.83, 1262.30 511.02, 1263.59 507.93 C 1264.88 504.84, 1265.31 503.28, 1265.70 500.10 C 1266.09 496.92, 1266.12 495.19, 1265.55 492.05 C 1264.99 488.90, 1264.21 487.22, 1262.88 484.37 C 1261.56 481.53, 1260.68 480.13, 1258.91 477.82 C 1257.15 475.50, 1256.12 474.36, 1254.06 472.80 C 1252.01 471.23, 1250.81 470.70, 1248.65 470.01 C 1246.48 469.32, 1245.39 469.27, 1243.23 469.34 C 1241.07 469.41, 1240.03 469.59, 1237.86 470.36 C 1235.68 471.12, 1234.55 471.70, 1232.34 473.18 C 1230.14 474.65, 1229.12 475.68, 1226.83 477.74 C 1224.53 479.81, 1223.53 480.98, 1220.88 483.51 C 1218.23 486.04, 1216.72 487.33, 1213.58 490.40 C 1210.45 493.46, 1208.70 495.20, 1205.20 498.84 C 1201.70 502.48, 1199.91 504.48, 1196.08 508.60 C 1192.25 512.72, 1190.12 514.98, 1186.04 519.43 C 1181.96 523.89, 1179.70 526.34, 1175.67 530.88 C 1171.64 535.42, 1169.56 537.73, 1165.90 542.13 C 1162.24 546.52, 1160.47 548.72, 1157.38 552.86 C 1154.30 556.99, 1152.88 558.98, 1150.46 562.80 C 1148.04 566.62, 1146.89 568.60, 1145.28 571.96 C 1143.68 575.32, 1142.99 576.97, 1142.43 579.62 C 1141.87 582.26, 1142.04 583.44, 1142.47 585.19 C 1142.91 586.93, 1143.50 587.72, 1144.62 588.35 C 1145.75 588.97, 1146.69 588.91, 1148.09 588.31 C 1149.48 587.71, 1150.15 587.06, 1151.60 585.35 C 1153.05 583.64, 1153.90 582.47, 1155.32 579.78 C 1156.75 577.08, 1157.40 575.42, 1158.72 571.89 C 1160.04 568.35, 1160.57 566.30, 1161.92 562.10 C 1163.27 557.90, 1164.04 555.61, 1165.49 550.89 C 1166.94 546.16, 1167.60 543.61, 1169.17 538.47 C 1170.73 533.34, 1171.58 530.44, 1173.32 525.20 C 1175.06 519.96, 1176.09 517.26, 1177.86 512.27 C 1179.64 507.28, 1180.52 504.69, 1182.20 500.25 C 1183.88 495.81, 1184.96 493.57, 1186.26 490.09 C 1187.55 486.61, 1188.30 485.08, 1188.67 482.86 C 1189.04 480.65, 1188.72 479.65, 1188.09 479.01 C 1187.46 478.36, 1186.75 478.56, 1185.52 479.63 C 1184.29 480.70, 1183.52 481.95, 1181.95 484.37 C 1180.39 486.78, 1179.71 488.55, 1177.70 491.70 C 1175.69 494.85, 1174.36 496.71, 1171.90 500.10 C 1169.44 503.50, 1168.01 505.50, 1165.39 508.67 C 1162.78 511.84, 1161.36 513.52, 1158.83 515.97 C 1156.30 518.42, 1154.77 519.29, 1152.73 520.91 C 1150.70 522.54, 1149.86 523.29, 1148.65 524.09 C 1147.45 524.89, 1147.14 525.23, 1146.71 524.92 C 1146.28 524.61, 1146.12 524.02, 1146.49 522.54 C 1146.86 521.07, 1147.36 520.06, 1148.55 517.55 C 1149.74 515.04, 1150.41 513.30, 1152.44 510.00 C 1154.47 506.71, 1155.92 504.56, 1158.70 501.08 C 1161.49 497.60, 1163.21 495.72, 1166.36 492.62 C 1169.52 489.51, 1171.34 487.94, 1174.49 485.56 C 1177.64 483.18, 1179.53 482.19, 1182.11 480.72 C 1184.69 479.25, 1185.81 479.00, 1187.39 478.22 C 1188.97 477.44, 1189.56 477.16, 1190.02 476.83 C 1190.47 476.49, 1190.32 476.25, 1189.65 476.55 C 1188.98 476.85, 1188.28 477.23, 1186.66 478.32 C 1185.04 479.41, 1183.93 480.12, 1181.55 481.99 C 1179.16 483.86, 1177.76 485.21, 1174.72 487.68 C 1171.68 490.15, 1169.87 491.58, 1166.37 494.34 C 1162.87 497.10, 1160.91 498.67, 1157.22 501.49 C 1153.53 504.31, 1151.53 505.98, 1147.92 508.43 C 1144.31 510.88, 1142.35 512.06, 1139.15 513.73 C 1135.95 515.40, 1134.38 515.91, 1131.92 516.77 C 1129.46 517.62, 1128.42 517.91, 1126.85 518.00 C 1125.28 518.08, 1124.78 518.02, 1124.07 517.19 C 1123.36 516.36, 1123.31 515.68, 1123.29 513.86 C 1123.27 512.03, 1123.57 510.65, 1123.95 508.06 C 1124.34 505.47, 1124.65 503.81, 1125.21 500.90 C 1125.78 498.00, 1126.52 496.26, 1126.78 493.54 C 1127.04 490.82, 1126.95 489.35, 1126.53 487.31 C 1126.10 485.28, 1125.71 484.32, 1124.64 483.36 C 1123.58 482.41, 1122.89 482.27, 1121.21 482.53 C 1119.54 482.80, 1118.39 483.15, 1116.28 484.70 C 1114.17 486.25, 1113.05 487.66, 1110.67 490.29 C 1108.28 492.91, 1106.90 494.73, 1104.34 497.83 C 1101.77 500.94, 1100.27 502.84, 1097.86 505.80 C 1095.45 508.75, 1093.97 510.22, 1092.28 512.61 C 1090.60 515.00, 1090.05 516.25, 1089.43 517.73 C 1088.80 519.22, 1088.94 519.88, 1089.17 520.04 C 1089.40 520.21, 1089.91 519.90, 1090.56 518.56 C 1091.21 517.21, 1091.68 515.97, 1092.43 513.32 C 1093.19 510.66, 1093.50 508.68, 1094.34 505.29 C 1095.19 501.90, 1095.81 499.87, 1096.64 496.37 C 1097.47 492.86, 1098.16 490.88, 1098.48 487.76 C 1098.81 484.64, 1098.83 483.00, 1098.28 480.75 C 1097.74 478.51, 1097.12 477.64, 1095.76 476.55 C 1094.40 475.46, 1093.45 475.11, 1091.48 475.30 C 1089.51 475.48, 1088.20 475.96, 1085.90 477.47 C 1083.60 478.97, 1082.48 480.28, 1080.00 482.81 C 1077.52 485.35, 1076.19 486.94, 1073.51 490.13 C 1070.83 493.33, 1069.32 495.34, 1066.58 498.79 C 1063.85 502.23, 1062.41 504.20, 1059.83 507.37 C 1057.26 510.54, 1055.84 512.11, 1053.72 514.64 C 1051.60 517.16, 1050.57 518.41, 1049.22 520.00 C 1047.88 521.58, 1047.55 522.10, 1046.98 522.59 C 1046.41 523.07, 1046.31 523.24, 1046.39 522.42 C 1046.47 521.60, 1046.85 520.73, 1047.37 518.48 C 1047.90 516.22, 1048.16 514.59, 1049.03 511.17 C 1049.89 507.74, 1050.53 505.33, 1051.68 501.36 C 1052.84 497.39, 1053.89 495.00, 1054.80 491.32 C 1055.72 487.65, 1056.28 485.50, 1056.27 482.98 C 1056.27 480.46, 1055.84 479.29, 1054.77 478.71 C 1053.71 478.13, 1052.76 478.44, 1050.96 480.07 C 1049.17 481.71, 1048.17 483.65, 1045.80 486.88 C 1043.44 490.11, 1042.02 492.38, 1039.14 496.23 C 1036.27 500.07, 1034.66 502.32, 1031.43 506.12 C 1028.20 509.91, 1026.23 512.08, 1023.00 515.21 C 1019.77 518.34, 1017.96 519.76, 1015.28 521.76 C 1012.60 523.76, 1011.39 524.36, 1009.61 525.19 C 1007.82 526.02, 1007.19 526.29, 1006.36 525.90 C 1005.53 525.52, 1005.55 525.02, 1005.45 523.27 C 1005.35 521.53, 1005.56 520.07, 1005.85 517.19 C 1006.13 514.31, 1006.32 512.26, 1006.86 508.88 C 1007.41 505.51, 1008.17 503.51, 1008.57 500.31 C 1008.97 497.12, 1009.26 495.21, 1008.85 492.91 C 1008.44 490.61, 1007.88 489.49, 1006.52 488.82 C 1005.17 488.14, 1004.16 488.22, 1002.08 489.53 C 999.99 490.83, 998.76 492.44, 996.08 495.33 C 993.40 498.22, 991.64 500.40, 988.68 503.96 C 985.71 507.53, 984.00 509.84, 981.24 513.15 C 978.49 516.45, 977.02 518.03, 974.89 520.48 C 972.75 522.92, 971.81 524.01, 970.57 525.38 C 969.34 526.74, 969.12 527.45, 968.71 527.30 C 968.29 527.15, 968.36 526.67, 968.49 524.61 C 968.61 522.56, 968.62 521.06, 969.35 517.03 C 970.07 513.01, 970.61 510.20, 972.10 504.49 C 973.59 498.77, 974.72 495.31, 976.80 488.47 C 978.87 481.63, 980.14 477.65, 982.48 470.28 C 984.81 462.91, 986.08 458.79, 988.47 451.62 C 990.87 444.46, 992.21 440.73, 994.46 434.47 C 996.70 428.22, 997.85 425.18, 999.69 420.36 C 1001.53 415.54, 1002.72 413.53, 1003.66 410.38 C 1004.60 407.23, 1004.66 406.10, 1004.38 404.60 C 1004.10 403.11, 1003.46 402.73, 1002.27 402.91 C 1001.09 403.09, 1000.14 403.63, 998.45 405.49 C 996.76 407.35, 996.06 409.00, 993.84 412.20 C 991.62 415.40, 990.27 417.42, 987.33 421.47 C 984.40 425.52, 982.54 428.00, 979.16 432.43 C 975.77 436.86, 973.99 439.34, 970.42 443.63 C 966.84 447.93, 964.82 450.11, 961.29 453.91 C 957.75 457.71, 955.98 459.53, 952.75 462.64 C 949.53 465.76, 948.00 467.12, 945.17 469.48 C 942.33 471.84, 940.94 472.57, 938.59 474.44 C 936.23 476.31, 935.20 477.10, 933.40 478.84 C 931.59 480.58, 930.74 481.50, 929.56 483.16 C 928.38 484.81, 927.90 485.78, 927.50 487.11 C 927.09 488.44, 927.23 489.16, 927.54 489.82 C 927.85 490.49, 928.42 490.60, 929.07 490.44" style="stroke: black; fill: black;"/></svg>